#!OML:ASF H:\GeneralSubjects\Female5\Project 1\Capture day 1\Session 1\Female5.ASF
:FULLY-SPECIFIED
:DEGREES
620
root -25.9151 15.8774 -1.67988 -172.746 -47.2912 -181.148
lowerback 8.47644 2.62179 -3.30298
upperback -7.74189 2.92223 0.498775
thorax -13.4671 1.63849 1.83565
lowerneck -25.1381 0.736364 0.13306
upperneck 45.3661 -3.19271 1.49441
head 24.6714 -1.92048 -0.518147
rclavicle -7.01461e-014 -1.39149e-015
rhumerus -16.6594 56.2074 -81.3426
rradius 103.804
rwrist -75.4801
rhand 4.57942 -19.4491
rfingers 7.12502
rthumb 29.9687 -47.042
lclavicle -7.01461e-014 -1.39149e-015
lhumerus -26.7208 6.34792 76.6874
lradius 43.1884
lwrist 5.72044
lhand -30.7307 35.5669
lfingers 7.12502
lthumb -4.02309 65.5087
rfemur -6.26577 42.1215 6.66627
rtibia -5.72787
rfoot -28.2034 -33.5615
rtoes -2.49688
lfemur 17.9074 -44.8651 -36.7458
ltibia -5.19401
lfoot -33.5533 31.2424
ltoes -61.805
621
root -25.94 15.8665 -1.52932 -172.157 -46.8346 -181.674
lowerback 8.56831 2.6557 -3.62301
upperback -7.76257 2.90015 0.364544
thorax -13.5615 1.65041 1.86727
lowerneck -25.0317 0.763989 0.252232
upperneck 45.2351 -3.10844 1.35679
head 24.4765 -1.88424 -0.590683
rclavicle 1.30688e-013 3.1408e-014
rhumerus -13.6787 56.2945 -78.2331
rradius 106.94
rwrist -74.306
rhand 6.06706 -18.456
rfingers 7.12502
rthumb 31.3872 -45.783
lclavicle 1.30688e-013 3.1408e-014
lhumerus -26.2216 4.77779 77.1883
lradius 45.5239
lwrist 6.362
lhand -31.5005 34.8769
lfingers 7.12502
lthumb -4.76647 64.8032
rfemur -7.61085 41.0363 5.16687
rtibia -5.3515
rfoot -28.2464 -33.2274
rtoes -0.644275
lfemur 16.813 -44.1465 -36.7872
ltibia -5.31768
lfoot -32.3597 31.2907
ltoes -61.1856
622
root -25.9532 15.8576 -1.37692 -171.51 -46.512 -182.11
lowerback 8.69091 2.6223 -3.88133
upperback -7.8318 2.78819 0.220362
thorax -13.7213 1.61348 1.87007
lowerneck -24.9281 0.790794 0.462403
upperneck 45.04 -3.04001 1.18681
head 24.2191 -1.83735 -0.699772
rclavicle -1.18525e-014 5.96354e-016
rhumerus -10.6832 56.2372 -75.0351
rradius 109.946
rwrist -73.2199
rhand 7.95703 -17.5474
rfingers 7.12502
rthumb 33.1862 -44.5081
lclavicle -1.18525e-014 5.96354e-016
lhumerus -25.8659 3.37231 77.545
lradius 47.7202
lwrist 6.73346
lhand -31.6565 34.3445
lfingers 7.12502
lthumb -4.91702 64.2674
rfemur -9.07175 40.1822 3.72688
rtibia -4.91139
rfoot -29.1269 -33.0956
rtoes 2.55193
lfemur 14.9721 -42.6784 -36.0835
ltibia -5.37971
lfoot -30.0347 30.9205
ltoes -61.2096
623
root -25.9617 15.8581 -1.22594 -171.03 -46.2524 -182.438
lowerback 8.97037 2.55094 -4.05924
upperback -7.881 2.63333 0.089174
thorax -13.9483 1.55119 1.84605
lowerneck -24.8084 0.802046 0.715437
upperneck 44.7819 -2.99357 0.99597
head 23.8986 -1.79139 -0.830239
rclavicle 7.0581e-014 3.68746e-014
rhumerus -7.78455 56.1019 -71.8386
rradius 112.868
rwrist -72.3672
rhand 10.1307 -16.6892
rfingers 7.12502
rthumb 35.2503 -43.1864
lclavicle 7.0581e-014 3.68746e-014
lhumerus -25.6625 2.1387 77.8137
lradius 49.742
lwrist 6.89435
lhand -31.3878 34.0395
lfingers 7.12502
lthumb -4.6576 63.9683
rfemur -10.287 39.7493 2.60142
rtibia -4.50125
rfoot -30.9244 -33.236
rtoes 6.907
lfemur 13.0464 -40.6988 -35.1999
ltibia -5.37002
lfoot -27.2476 30.1229
ltoes -61.4763
624
root -25.9659 15.8608 -1.07395 -170.512 -46.1 -182.714
lowerback 9.24371 2.42362 -4.14818
upperback -7.9612 2.41056 -0.0492354
thorax -14.1978 1.4478 1.77971
lowerneck -24.6675 0.787286 0.968608
upperneck 44.474 -2.98833 0.820975
head 23.533 -1.7583 -0.958344
rclavicle 1.88845e-014 1.3418e-014
rhumerus -5.12032 55.9454 -68.7848
rradius 115.732
rwrist -71.7593
rhand 12.4229 -15.864
rfingers 7.12502
rthumb 37.4206 -41.8186
lclavicle 1.88845e-014 1.3418e-014
lhumerus -25.615 1.04577 78.0166
lradius 51.546
lwrist 6.92312
lhand -30.9857 33.9073
lfingers 7.12502
lthumb -4.26933 63.8443
rfemur -11.5021 39.5912 1.53755
rtibia -4.14805
rfoot -33.709 -33.5229
rtoes 12.1874
lfemur 10.8868 -38.4352 -34.1836
ltibia -5.16381
lfoot -24.3668 28.8209
ltoes -62.1478
625
root -25.9747 15.8666 -0.923918 -170.047 -45.9382 -182.939
lowerback 9.45188 2.28381 -4.19719
upperback -8.02591 2.18444 -0.148739
thorax -14.3882 1.34113 1.73874
lowerneck -24.5006 0.734942 1.14692
upperneck 44.1424 -3.01688 0.672322
head 23.1496 -1.7498 -1.06317
rclavicle -1.09704e-014 -6.36111e-015
rhumerus -2.78796 55.8533 -65.8964
rradius 118.563
rwrist -71.2938
rhand 14.6448 -15.0904
rfingers 7.12502
rthumb 39.5172 -40.4603
lclavicle -1.09704e-014 -6.36111e-015
lhumerus -25.7296 0.126039 78.2423
lradius 53.0668
lwrist 6.86352
lhand -30.6789 33.8024
lfingers 7.12502
lthumb -3.97305 63.7451
rfemur -12.5806 39.8138 0.590784
rtibia -3.9381
rfoot -37.4812 -33.8446
rtoes 17.7602
lfemur 8.98014 -36.4539 -33.4718
ltibia -4.81302
lfoot -22.1589 27.4756
ltoes -62.7419
